<svg xmlns="http://www.w3.org/2000/svg" xmlns:xlink="http://www.w3.org/1999/xlink" width="30" height="30" viewBox="0 0 30 30"><defs><style>.a{opacity:0.4;fill:url(#a);}</style><linearGradient id="a" x1="0.5" x2="0.5" y2="1" gradientUnits="objectBoundingBox"><stop offset="0" stop-color="#2adce8"/><stop offset="1" stop-color="#26cc8b"/></linearGradient></defs><path class="a" d="M17,2A15,15,0,1,0,32,17,15,15,0,0,0,17,2Zm9,16.5H23.93l-2.595,5.175A1.5,1.5,0,0,1,20,24.5h0a1.5,1.5,0,0,1-1.335-.975L15.05,14.09,12.2,17.9a1.5,1.5,0,0,1-1.2.6H8a1.5,1.5,0,0,1,0-3h2.25l4.05-5.4a1.5,1.5,0,0,1,2.61.36L20.2,19.235l1.5-2.925A1.5,1.5,0,0,1,23,15.5h3a1.5,1.5,0,0,1,0,3Z" transform="translate(-2 -2)"/></svg>