<svg xmlns="http://www.w3.org/2000/svg" width="56.369" height="45.095" viewBox="0 0 56.369 45.095"><defs><style>.a{fill:#fff;}</style></defs><path class="a" d="M49.913,9.637h-4.47L42.625,6.818A10.565,10.565,0,0,0,35.821,4H24.547a10.565,10.565,0,0,0-6.8,2.818L14.925,9.637h-4.47A8.466,8.466,0,0,0,2,18.092V40.64a8.466,8.466,0,0,0,8.455,8.455H49.913a8.466,8.466,0,0,0,8.455-8.455V18.092A8.466,8.466,0,0,0,49.913,9.637ZM30.184,37.821a9.865,9.865,0,1,1,9.865-9.865A9.866,9.866,0,0,1,30.184,37.821ZM47.095,24.572a3.664,3.664,0,1,1,3.664-3.661A3.658,3.658,0,0,1,47.095,24.572Z" transform="translate(-2 -4)"/></svg>