<svg xmlns="http://www.w3.org/2000/svg" width="30" height="29.999" viewBox="0 0 30 29.999"><defs><style>.a{opacity:0.4;}.b,.f{fill:#486285;}.b{opacity:0.6;}.c{fill:#26cc8b;}.d{fill:#2adce8;}.e{opacity:0.1;}</style></defs><g class="a" transform="translate(-56.062 -56.07)"><path class="b" d="M86.536,84.158a15.014,15.014,0,0,1-1.228,1.365A14.823,14.823,0,0,1,67.191,87.6a15.072,15.072,0,0,1-2.949-2.355,14.812,14.812,0,0,1-1.76-18.456q.375-.572.806-1.113a14.847,14.847,0,0,1,20.863-2.385c.116.092.217.175.311.254.237.2.472.407.713.638l.1.095a14.851,14.851,0,0,1,1.263,19.877Z" transform="translate(-3.699 -3.699)"/><g transform="translate(56.062 56.07)"><path class="c" d="M69.728,88.642a1.043,1.043,0,0,1,.937-.852c1.107-.173,1.991.61,2.794,1.193a10.45,10.45,0,0,0,3.188,1.933.813.813,0,0,0,.93-.2c.216-.294.152-.557-.046-.918a11.639,11.639,0,0,0-2.726-2.963c-.881-.769-1.854-1.466-2.661-2.317a6.788,6.788,0,0,1-1.14-1.5c-.245-.473-.523-1.3.128-1.716,1.55-.977,3.165.669,4.146,1.543.689.614,1.4,1.2,2.136,1.76A10.209,10.209,0,0,0,80.495,86.4a2.854,2.854,0,0,0,2.48-.2c.662-.521-.058-1.416-.435-1.78a13.882,13.882,0,0,0-2.2-1.633c-.764-.493-1.491-1.009-2.217-1.556-1.04-.785-2.117-1.528-3.112-2.371a9.63,9.63,0,0,1-2.038-2.153,2.241,2.241,0,0,1-.395-2.065,1.791,1.791,0,0,1,1.765-1.03c1.5.145,2.727,1.379,3.771,2.309a25.077,25.077,0,0,0,5.417,3.913,4.7,4.7,0,0,0,2.122.589c.2,0,.485-.032.515-.29a1.425,1.425,0,0,0-.08-.6c-.014-.041-.032-.11-.052-.16a12.363,12.363,0,0,0-1.866-2.02,10.451,10.451,0,0,1-2.1-2.618,1.131,1.131,0,0,1,1.007-1.767,3.642,3.642,0,0,1,2.367.852,3.161,3.161,0,0,0,1.317.606c.167.02.88.145,1.07.016a.1.1,0,0,0,0-.014,1.232,1.232,0,0,0-.07-.19,2.2,2.2,0,0,0-.261-.388,6.256,6.256,0,0,0-.825-.843c-.575-.494-1.23-.882-1.847-1.32a5.847,5.847,0,0,1-1.8-1.708,1.734,1.734,0,0,1,.144-2.128,2.193,2.193,0,0,1,2.094-.233,6.034,6.034,0,0,1,1.954,1.039,4.849,4.849,0,0,0,1.187.711,1.384,1.384,0,0,0,.89.055l-.062-.053c-.09-.076-.185-.155-.295-.241A14.1,14.1,0,0,0,70.883,90.779a8.93,8.93,0,0,1-.686-.86A1.969,1.969,0,0,1,69.728,88.642Z" transform="translate(-65.319 -65.322)"/><path class="d" d="M145.457,98.052l0,0c-.972.79-2.191.155-2.992-.413a4.723,4.723,0,0,0-2.727-1.216c-.443,0-.723.257-.587.737a2.578,2.578,0,0,0,.879,1.185c1.218,1.051,2.741,1.723,3.736,3.032.341.448.77,1.208.169,1.746a2.659,2.659,0,0,1-2.515.059,10.124,10.124,0,0,1-1.284-.764,2.48,2.48,0,0,0-1.206-.512,1.356,1.356,0,0,0-.611.087l-.023.011a.105.105,0,0,1,0,.014c.008-.054.018.1.014.109a1.617,1.617,0,0,0,.085.242,3.6,3.6,0,0,0,.295.5,12.136,12.136,0,0,0,1.068,1.295c.739.8,1.55,1.532,2.259,2.361.653.762.951,2.509-.485,2.805a4.05,4.05,0,0,1-2.213-.326,13.016,13.016,0,0,1-2.888-1.624c-1.534-1.1-2.9-2.38-4.373-3.558a6.075,6.075,0,0,0-1.921-1.175c-.43-.134-1.329-.11-1.275.616a3.192,3.192,0,0,0,1.008,1.792,23.378,23.378,0,0,0,2.99,2.519c.876.647,1.721,1.351,2.628,1.954.758.5,1.543.967,2.27,1.511a5,5,0,0,1,1.668,1.778,1.673,1.673,0,0,1-.439,2.146c-1.8,1.254-3.99.232-5.436-.725a26.957,26.957,0,0,1-2.63-2.007c-.623-.532-1.211-1.109-1.874-1.593a3.747,3.747,0,0,0-1.047-.6,1.1,1.1,0,0,0-.857.029c-.077.06.051.354.122.482a5.694,5.694,0,0,0,.568.83,17.348,17.348,0,0,0,2.353,2.2,21.228,21.228,0,0,1,3.109,3.012c.558.713,1.282,1.881.395,2.8s-2.082.444-2.93-.042c-1.134-.649-2.124-1.5-3.22-2.2a2.086,2.086,0,0,0-1.074-.443,1.84,1.84,0,0,0-.294.043.445.445,0,0,0-.053.025c0,.053,0,.036.029.113a3.957,3.957,0,0,0,.81,1.186c.4.451.82.873,1.248,1.29a7.1,7.1,0,0,1,1.46,1.621c.106.051.212.1.319.149a14.1,14.1,0,0,0,15.475-23.074Z" transform="translate(-120.86 -93.391)"/><path class="e" d="M80.546,155.388a14.87,14.87,0,0,1-15.667,2.266,14.93,14.93,0,0,1-3.2-1.947q-.594-.472-1.131-.994a14.865,14.865,0,0,1-2.811-17.477,14.974,14.974,0,0,1,1.306-2.068q-.145.537-.255,1.089-.089.446-.154.9v0a16.75,16.75,0,0,0,9.584,17.585q.393.181.8.341a16.806,16.806,0,0,0,9.575.833h0A16.525,16.525,0,0,0,80.546,155.388Z" transform="translate(-56.063 -129.234)"/><path class="f" d="M85.724,69.866a14.8,14.8,0,0,0-4.15-9.284c-.13-.133-.263-.266-.4-.395-.242-.23-.476-.44-.713-.638-.094-.08-.2-.163-.311-.254A14.847,14.847,0,0,0,59.288,61.68q-.128.161-.251.324a14.97,14.97,0,0,0-1.306,2.068,14.865,14.865,0,0,0,2.811,17.477q.537.521,1.131.994a14.93,14.93,0,0,0,3.2,1.947,14.814,14.814,0,0,0,15.667-2.266,14.987,14.987,0,0,0,1.992-2.066A14.807,14.807,0,0,0,85.724,69.866ZM56.906,72.521c-.009-.079-.017-.157-.025-.236-.006-.058-.011-.115-.016-.173s-.008-.092-.011-.139-.006-.079-.008-.118c0-.012,0-.025,0-.037l-.007-.114q-.024-.407-.023-.812c0-.029,0-.059,0-.087s0-.059,0-.088,0-.064,0-.1c0-.009,0-.017,0-.026l0-.16c0-.008,0-.016,0-.023q0-.056,0-.113c0-.006,0-.011,0-.017,0-.04,0-.08.005-.119s.005-.1.009-.153l0-.034c0-.04,0-.08.008-.119s.007-.091.011-.136c0,0,0-.007,0-.011.005-.061.011-.122.017-.182s.014-.131.021-.2c.012-.119.027-.236.044-.353.008-.06.017-.12.026-.18s.017-.113.027-.17c.013-.077.026-.154.039-.23l.018-.095c.005-.032.011-.063.018-.094s.013-.067.02-.1l.02-.1c0-.02.008-.04.013-.059q.01-.053.023-.106c.007-.036.016-.071.024-.107s.02-.085.03-.128.026-.107.04-.16.023-.089.034-.134l0-.016h0c.062-.232.129-.463.2-.691q.027-.086.056-.171c.059-.176.12-.349.186-.521l.005-.013c.017-.047.036-.1.056-.143s.044-.112.067-.167c.038-.095.078-.188.119-.282.019-.044.038-.088.058-.131s.04-.089.061-.134l.07-.15c.023-.05.047-.1.072-.149s.049-.1.074-.148l.068-.134c.029-.056.058-.112.088-.167l.077-.143.08-.143L58.625,64l0-.005v0l.07-.122c.041-.073.084-.145.128-.217l.031-.05q.113-.185.23-.365c.027-.042.054-.083.083-.125s.055-.083.083-.123.056-.082.085-.123.057-.082.086-.122.038-.053.056-.079c.069-.1.139-.19.211-.284.03-.04.06-.08.092-.119l.093-.119a14.095,14.095,0,0,1,19.808-2.265c.11.086.2.165.295.241l.062.053a1.385,1.385,0,0,1-.89-.055,4.849,4.849,0,0,1-1.187-.711,6.033,6.033,0,0,0-1.954-1.039,2.193,2.193,0,0,0-2.094.233,1.734,1.734,0,0,0-.144,2.128,5.846,5.846,0,0,0,1.8,1.708c.617.438,1.272.825,1.847,1.32a6.252,6.252,0,0,1,.825.843,2.19,2.19,0,0,1,.261.388,1.229,1.229,0,0,1,.07.19.08.08,0,0,1,0,.014c-.19.129-.9,0-1.07-.016a3.162,3.162,0,0,1-1.317-.606,3.643,3.643,0,0,0-2.367-.852,1.131,1.131,0,0,0-1.007,1.767,10.452,10.452,0,0,0,2.1,2.618,12.363,12.363,0,0,1,1.866,2.02c.02.05.038.119.052.16a1.424,1.424,0,0,1,.08.6c-.031.258-.314.285-.515.29a4.7,4.7,0,0,1-2.122-.589,25.081,25.081,0,0,1-5.417-3.913c-1.044-.93-2.275-2.164-3.771-2.309a1.791,1.791,0,0,0-1.765,1.03,2.241,2.241,0,0,0,.395,2.065,9.63,9.63,0,0,0,2.038,2.153c.995.843,2.072,1.586,3.112,2.371.725.547,1.452,1.063,2.217,1.556a13.872,13.872,0,0,1,2.2,1.633c.377.365,1.1,1.26.435,1.78a2.854,2.854,0,0,1-2.48.2,10.209,10.209,0,0,1-3.081-1.786c-.733-.562-1.446-1.146-2.136-1.76-.981-.874-2.6-2.521-4.146-1.543-.651.412-.374,1.243-.128,1.716a6.786,6.786,0,0,0,1.14,1.5c.807.852,1.78,1.548,2.661,2.317a11.639,11.639,0,0,1,2.726,2.963c.2.362.262.624.046.918a.583.583,0,0,1-.107.112c-.016.013-.032.024-.047.035a.569.569,0,0,1-.1.052l-.007,0a.729.729,0,0,1-.107.032h0a.773.773,0,0,1-.119.016l-.061,0a1.494,1.494,0,0,1-.383-.057A10.45,10.45,0,0,1,64.2,79.731c-.8-.583-1.687-1.365-2.794-1.193l-.069.013-.053.013-.007,0-.012,0-.006,0,0,0-.041.013-.024.007,0,0,0,0-.044.016-.005,0-.009,0-.051.02h0a1.411,1.411,0,0,0-.13.067l-.026.016-.049.032-.011.008,0,0c-.02.014-.038.028-.056.043s-.032.026-.047.041a.351.351,0,0,0-.034.033l-.017.017,0,0-.032.037-.035.044,0,0-.019.027-.012.018c-.008.011-.014.023-.021.035s-.011.018-.015.028l-.014.029a.516.516,0,0,0-.026.059c-.005.014-.01.027-.014.041l-.008.025c0,.008-.005.017-.007.025a.011.011,0,0,0,0,0l-.007.031c0,.015-.006.03-.008.046s0,.029-.005.044a1.969,1.969,0,0,0,.468,1.277,8.93,8.93,0,0,0,.686.86A14,14,0,0,1,56.906,72.521Zm25.044,7.171c-.029.037-.058.073-.087.108-.014.018-.029.036-.044.053l-.044.054c-.059.071-.119.142-.179.212s-.11.128-.167.191l-.015.017c-.031.035-.061.068-.092.1l-.047.051-.047.05c-.059.064-.118.127-.179.189l-.031.032c-.061.062-.121.123-.182.184l-.185.18q-.2.189-.4.37c-.068.06-.136.119-.2.179l-.2.165-.011.009c-.064.053-.128.1-.192.155l0,0-.032.026c-.065.052-.131.1-.2.152l-.047.035-.047.035-.094.07-.036.026-.021.015c-.064.046-.128.092-.193.137l-.107.074-.115.078c-.056.038-.113.076-.17.113h0l-.023.015c-.049.033-.1.064-.148.095l-.009.006-.158.1c-.112.068-.224.135-.338.2-.041.024-.082.047-.123.07s-.092.052-.139.077-.107.059-.161.086l-.023.012-.159.082c-.044.023-.089.046-.134.067l-.09.044q-.2.1-.394.184l-.105.047-.089.039-.09.038-.014.006c-.081.034-.162.067-.244.1l-.236.092-.029.011c-.075.029-.15.056-.225.082l-.083.03-.165.056-.031.011-.041.013-.1.034-.1.032-.122.038-.122.036-.014,0h0l-.028.008-.211.059-.24.063-.108.027-.107.026-.053.013q-.212.048-.425.092l-.008,0-.11.021c-.047.01-.092.018-.139.026h-.005l-.048.008-.185.032-.051.008-.116.018-.116.017-.045.006-.157.021-.058.008-.2.024-.073.008c-.066.007-.132.014-.2.019l-.022,0-.063.005-.016,0-.134.011-.032,0h-.007L71.671,85H71.65l-.131.006-.061,0-.116,0-.088,0-.127,0-.224,0A13.971,13.971,0,0,1,65.183,83.8c-.107-.047-.213-.1-.319-.149a7.1,7.1,0,0,0-1.46-1.621c-.428-.418-.852-.84-1.248-1.29a3.957,3.957,0,0,1-.81-1.186c-.027-.077-.028-.061-.029-.113a.448.448,0,0,1,.053-.025,1.833,1.833,0,0,1,.294-.043.519.519,0,0,1,.059,0l.037,0,.037,0h0l.033,0a1.032,1.032,0,0,1,.115.026l.023.007h0l.014,0c.026.008.053.017.08.028l.047.018c.022.008.044.018.065.028l.058.027c.039.019.079.04.118.061l.065.037c.044.025.087.051.13.077l.064.04.126.08c1.1.7,2.086,1.551,3.22,2.2.848.486,2.044.963,2.93.042.018-.019.036-.038.053-.058s.048-.055.069-.083l0,0c.012-.016.024-.032.035-.048a1.429,1.429,0,0,0,.113-.187c.008-.014.015-.029.022-.044a1.323,1.323,0,0,0,.1-.3c0-.017.007-.034.009-.051s.007-.048.01-.072,0-.021,0-.032,0-.035,0-.053,0-.042,0-.063a3.214,3.214,0,0,0-.811-1.81,21.228,21.228,0,0,0-3.109-3.012,17.339,17.339,0,0,1-2.353-2.2,5.69,5.69,0,0,1-.568-.83c-.071-.128-.2-.422-.122-.482a1.1,1.1,0,0,1,.857-.029,3.747,3.747,0,0,1,1.047.6c.663.484,1.251,1.061,1.874,1.593a26.954,26.954,0,0,0,2.63,2.007c1.446.957,3.631,1.979,5.435.725a1.673,1.673,0,0,0,.439-2.146,5,5,0,0,0-1.668-1.778c-.728-.544-1.512-1.008-2.27-1.511-.907-.6-1.752-1.306-2.628-1.954a23.383,23.383,0,0,1-2.99-2.519,3.192,3.192,0,0,1-1.008-1.792c-.053-.725.846-.75,1.275-.616a6.076,6.076,0,0,1,1.921,1.175c1.468,1.177,2.839,2.458,4.373,3.558a13.016,13.016,0,0,0,2.888,1.623A4.05,4.05,0,0,0,76.73,72c1.436-.3,1.138-2.043.485-2.805-.709-.829-1.52-1.56-2.259-2.361a12.12,12.12,0,0,1-1.068-1.295,3.614,3.614,0,0,1-.295-.5,1.608,1.608,0,0,1-.085-.242s-.006-.163-.014-.109a.106.106,0,0,0,0-.014l.023-.011a1.356,1.356,0,0,1,.611-.087,2.48,2.48,0,0,1,1.206.512,10.12,10.12,0,0,0,1.284.764,2.659,2.659,0,0,0,2.515-.059c.6-.538.173-1.3-.169-1.746-1-1.308-2.519-1.981-3.736-3.032a2.579,2.579,0,0,1-.879-1.185c-.136-.48.144-.734.587-.737a4.724,4.724,0,0,1,2.727,1.216c.8.567,2.02,1.2,2.992.413l0,0A14.021,14.021,0,0,1,81.949,79.692Z" transform="translate(-56.062 -56.07)"/></g></g></svg>