<svg xmlns="http://www.w3.org/2000/svg" xmlns:xlink="http://www.w3.org/1999/xlink" width="30.143" height="31.114" viewBox="0 0 30.143 31.114"><defs><style>.a{stroke:#707070;fill:url(#a);}.b{fill:none;stroke:#303030;stroke-linecap:round;stroke-linejoin:round;stroke-miterlimit:10;stroke-width:0.7px;}</style><linearGradient id="a" x1="0.5" y1="1" x2="0.5" y2="0.022" gradientUnits="objectBoundingBox"><stop offset="0" stop-color="#29db95"/><stop offset="1" stop-color="#2adce8"/></linearGradient></defs><g transform="translate(-13.2 -12.784)"><g transform="translate(13.7 13.398)"><path class="a" d="M42.843,28.359V42.011A1.389,1.389,0,0,1,41.457,43.4H31.214v-6.96A2.821,2.821,0,0,0,31,35.348a2.939,2.939,0,0,0-2.73-1.853,2.92,2.92,0,0,0-2.73,1.853,2.819,2.819,0,0,0-.212,1.089V43.4H15.087A1.389,1.389,0,0,1,13.7,42.011V28.359a2.276,2.276,0,0,1,.679-1.641L27.3,13.8a1.383,1.383,0,0,1,1.952,0L42.164,26.718A2.276,2.276,0,0,1,42.843,28.359Z" transform="translate(-13.7 -13.398)"/><path class="b" d="M22.07,29.452A2.92,2.92,0,0,1,24.8,27.6a2.939,2.939,0,0,1,2.73,1.853" transform="translate(-10.229 -7.509)"/><path class="b" d="M42.843,28.359V42.008A1.387,1.387,0,0,1,41.456,43.4H31.214V36.431A2.821,2.821,0,0,0,31,35.342a2.939,2.939,0,0,0-2.73-1.853,2.92,2.92,0,0,0-2.73,1.853,2.821,2.821,0,0,0-.212,1.089V43.4H15.087A1.387,1.387,0,0,1,13.7,42.008V28.359a2.327,2.327,0,0,1,.681-1.645L27.29,13.8a1.387,1.387,0,0,1,1.962,0L42.162,26.714A2.327,2.327,0,0,1,42.843,28.359Z" transform="translate(-13.7 -13.398)"/><line class="b" y2="5.236" transform="translate(2.345 17.129)"/><line class="b" y2="1.258" transform="translate(2.345 24.713)"/></g></g></svg>