<svg xmlns="http://www.w3.org/2000/svg" width="29.586" height="23.87" viewBox="0 0 29.586 23.87">
  <g id="Union_41" data-name="Union 41" transform="matrix(0.978, 0.208, -0.208, 0.978, 3.914, 0)" fill="none">
    <path d="M24.188,18.649,17.06,14.713a1.281,1.281,0,0,1-.5-1.792,1.406,1.406,0,0,1,1.874-.48l7.128,3.935a1.282,1.282,0,0,1,.5,1.793,1.384,1.384,0,0,1-1.189.656A1.413,1.413,0,0,1,24.188,18.649ZM0,8.246A8.441,8.441,0,0,1,8.622,0a8.44,8.44,0,0,1,8.622,8.246,8.44,8.44,0,0,1-8.622,8.246A8.441,8.441,0,0,1,0,8.246Z" stroke="none"/>
    <path d="M 8.62218189239502 13.99259376525879 C 11.99796199798584 13.99259376525879 14.74435234069824 11.41481399536133 14.74435234069824 8.246294021606445 C 14.74435234069824 5.077773571014404 11.99796199798584 2.500003576278687 8.62218189239502 2.500003576278687 C 5.246402263641357 2.500003576278687 2.500002145767212 5.077773571014404 2.500002145767212 8.246294021606445 C 2.500002145767212 11.41481399536133 5.246402263641357 13.99259376525879 8.62218189239502 13.99259376525879 M 24.87241172790527 18.82481384277344 C 24.63955116271973 18.8248233795166 24.40365219116211 18.76807403564453 24.18764114379883 18.64867401123047 L 17.05964279174805 14.71268367767334 C 16.40399169921875 14.35120391845703 16.17904281616211 13.5484037399292 16.5576229095459 12.92085361480713 C 16.81146621704102 12.50005435943604 17.27259635925293 12.26486396789551 17.74651718139648 12.26486396789551 C 17.97937965393066 12.26486396789551 18.21527671813965 12.32161140441895 18.4312915802002 12.44101333618164 L 25.55928230285645 16.37607383728027 C 26.21493148803711 16.73848342895508 26.43988227844238 17.54127311706543 26.06131172180176 18.16883277893066 C 25.80746269226074 18.58962440490723 25.34633255004883 18.82479286193848 24.87241172790527 18.82481384277344 Z M 8.62218189239502 16.49259376525879 C 3.860732078552246 16.49259376525879 2.092895556415897e-06 12.80066394805908 2.092895556415897e-06 8.246294021606445 C 2.092895556415897e-06 3.691933631896973 3.860732078552246 3.597107024688739e-06 8.62218189239502 3.597107024688739e-06 C 13.38454246520996 3.597107024688739e-06 17.24435234069824 3.691933631896973 17.24435234069824 8.246294021606445 C 17.24435234069824 12.80066394805908 13.38454246520996 16.49259376525879 8.62218189239502 16.49259376525879 Z" stroke="none" fill="#26cc8b"/>
  </g>
</svg>
