<svg xmlns="http://www.w3.org/2000/svg" width="53.478" height="58.34" viewBox="0 0 53.478 58.34"><defs><style>.a{fill:#26cc8b;}</style></defs><path class="a" d="M245.478,176.5a9.465,9.465,0,0,1-2.773,7.2,10.243,10.243,0,0,1-7.368,2.64h-33.2a10.243,10.243,0,0,1-7.368-2.64A9.465,9.465,0,0,1,192,176.5q0-2.013.133-3.931a38.683,38.683,0,0,1,.532-4.14,32.2,32.2,0,0,1,1.007-4.121,19.523,19.523,0,0,1,1.633-3.7,13.354,13.354,0,0,1,2.355-3.077,9.908,9.908,0,0,1,3.247-2.032,11.406,11.406,0,0,1,4.235-.76,4.641,4.641,0,0,1,1.6.817q1.253.817,2.83,1.823a17.949,17.949,0,0,0,4.1,1.823,16.151,16.151,0,0,0,10.141,0,17.949,17.949,0,0,0,4.1-1.823q1.576-1.007,2.83-1.823a4.64,4.64,0,0,1,1.6-.817,11.406,11.406,0,0,1,4.235.76,9.908,9.908,0,0,1,3.247,2.032,13.353,13.353,0,0,1,2.355,3.077,19.523,19.523,0,0,1,1.633,3.7,32.2,32.2,0,0,1,1.007,4.121,38.687,38.687,0,0,1,.532,4.14Q245.478,174.489,245.478,176.5Zm-12.154-33.918a14.589,14.589,0,1,1-4.273-10.312A14.052,14.052,0,0,1,233.324,142.585Z" transform="translate(-192 -128)"/></svg>