<svg xmlns="http://www.w3.org/2000/svg" width="36.678" height="26.491" viewBox="0 0 36.678 26.491"><defs><style>.a{fill:#fff;}</style></defs><g transform="translate(-74.888 -125.192)"><g transform="translate(74.887 125.193)"><path class="a" d="M89.277,125.667a1.62,1.62,0,0,0-2.291,0l-11.62,11.62a1.644,1.644,0,0,0-.112.125c-.011.013-.02.027-.031.042s-.043.056-.063.085-.026.044-.039.065-.028.047-.042.071-.024.049-.035.074-.022.046-.032.069-.019.053-.028.079-.017.047-.024.07-.015.059-.022.087-.011.044-.016.066a1.136,1.136,0,0,0-.017.115l-.006.042a1.6,1.6,0,0,0,0,.326l0,.018c.005.047.012.093.021.139,0,.013.007.026.01.039.009.038.018.077.029.114,0,.013.009.026.014.04.012.036.025.074.041.11l.015.032c.017.037.034.075.054.111l.013.021c.021.038.045.077.069.114l.006.009a1.594,1.594,0,0,0,.191.232l11.625,11.625a1.62,1.62,0,0,0,2.29-2.291l-8.86-8.86h29.528a1.62,1.62,0,1,0,0-3.24H80.418l8.859-8.86A1.619,1.619,0,0,0,89.277,125.667Z" transform="translate(-74.887 -125.193)"/></g></g></svg>