<svg xmlns="http://www.w3.org/2000/svg" width="24.829" height="24.494" viewBox="0 0 24.829 24.494">
  <g id="Group_346" data-name="Group 346" transform="translate(-463.461 -543.769)">
    <g id="Path_332" data-name="Path 332" transform="translate(476.254 548.46) rotate(48)" fill="none">
      <path d="M5.469.049a5.654,5.654,0,0,1,5.559,5.545l.08,6.257a5.318,5.318,0,0,1-5.42,5.406A5.654,5.654,0,0,1,.128,11.712L.049,5.454A5.318,5.318,0,0,1,5.469.049Z" stroke="none"/>
      <path d="M 5.397859573364258 0.7483177185058594 C 4.132219791412354 0.7483177185058594 2.95276927947998 1.236917495727539 2.076769828796387 2.124117851257324 C 1.204339981079102 3.007708549499512 0.7326793670654297 4.187288284301758 0.7486696243286133 5.445568084716797 L 0.8281898498535156 11.70301818847656 C 0.8617792129516602 14.34581756591797 3.04573917388916 16.52322769165039 5.696529865264893 16.55682754516602 C 5.71744966506958 16.55708885192871 5.738059520721436 16.55721855163574 5.758919715881348 16.55721855163574 C 7.024559497833252 16.55721855163574 8.204010009765625 16.06861877441406 9.080009460449219 15.18141841888428 C 9.952439308166504 14.29782867431641 10.42409992218018 13.11824798583984 10.40810966491699 11.8599681854248 L 10.32858943939209 5.602518081665039 C 10.29500007629395 2.959717750549316 8.111040115356445 0.7823085784912109 5.460249423980713 0.7487087249755859 C 5.439329624176025 0.7484474182128906 5.41871976852417 0.7483177185058594 5.397859573364258 0.7483177185058594 M 5.397863388061523 0.04831695556640625 C 5.42165994644165 0.04831695556640625 5.44517707824707 0.04846572875976562 5.469049453735352 0.04876899719238281 C 8.501029968261719 0.08719825744628906 10.99009990692139 2.569707870483398 11.02853012084961 5.593618392944336 L 11.1080493927002 11.85107803344727 C 11.14617729187012 14.8511791229248 8.757463455200195 17.2572193145752 5.758915901184082 17.2572193145752 C 5.735119342803955 17.2572193145752 5.711602210998535 17.25707054138184 5.687729835510254 17.25676727294922 C 2.655749320983887 17.21833801269531 0.1666793823242188 14.7358283996582 0.1282491683959961 11.71191787719727 L 0.04872989654541016 5.454458236694336 C 0.01060199737548828 2.454357147216797 2.39931583404541 0.04831695556640625 5.397863388061523 0.04831695556640625 Z" stroke="none" fill="#fff"/>
    </g>
    <g id="Path_333" data-name="Path 333" transform="translate(480.893 543.701) rotate(48)" fill="none">
      <path d="M5.469.049a5.654,5.654,0,0,1,5.559,5.545l.08,6.257a5.318,5.318,0,0,1-5.42,5.406A5.654,5.654,0,0,1,.128,11.712L.049,5.454A5.318,5.318,0,0,1,5.469.049Z" stroke="none"/>
      <path d="M 5.397859573364258 0.7483177185058594 C 4.132219791412354 0.7483177185058594 2.95276927947998 1.236917495727539 2.076769828796387 2.124117851257324 C 1.204339981079102 3.007708549499512 0.7326793670654297 4.187288284301758 0.7486696243286133 5.445568084716797 L 0.8281898498535156 11.70301818847656 C 0.8617792129516602 14.34581756591797 3.04573917388916 16.52322769165039 5.696529865264893 16.55682754516602 C 5.71744966506958 16.55708885192871 5.738059520721436 16.55721855163574 5.758919715881348 16.55721855163574 C 7.024559497833252 16.55721855163574 8.204010009765625 16.06861877441406 9.080009460449219 15.18141841888428 C 9.952439308166504 14.29782867431641 10.42409992218018 13.11824798583984 10.40810966491699 11.8599681854248 L 10.32858943939209 5.602518081665039 C 10.29500007629395 2.959717750549316 8.111040115356445 0.7823085784912109 5.460249423980713 0.7487087249755859 C 5.439329624176025 0.7484474182128906 5.41871976852417 0.7483177185058594 5.397859573364258 0.7483177185058594 M 5.397863388061523 0.04831695556640625 C 5.42165994644165 0.04831695556640625 5.44517707824707 0.04846572875976562 5.469049453735352 0.04876899719238281 C 8.501029968261719 0.08719825744628906 10.99009990692139 2.569707870483398 11.02853012084961 5.593618392944336 L 11.1080493927002 11.85107803344727 C 11.14617729187012 14.8511791229248 8.757463455200195 17.2572193145752 5.758915901184082 17.2572193145752 C 5.735119342803955 17.2572193145752 5.711602210998535 17.25707054138184 5.687729835510254 17.25676727294922 C 2.655749320983887 17.21833801269531 0.1666793823242188 14.7358283996582 0.1282491683959961 11.71191787719727 L 0.04872989654541016 5.454458236694336 C 0.01060199737548828 2.454357147216797 2.39931583404541 0.04831695556640625 5.397863388061523 0.04831695556640625 Z" stroke="none" fill="#939a9f"/>
    </g>
  </g>
</svg>
