<svg xmlns="http://www.w3.org/2000/svg" width="44" height="36.667" viewBox="0 0 44 36.667"><defs><style>.a{fill:#fff;}</style></defs><g transform="translate(0 -2)"><path class="a" d="M44,9.333A7.355,7.355,0,0,0,36.667,2H7.333A7.355,7.355,0,0,0,0,9.333v22a7.355,7.355,0,0,0,7.333,7.333H36.667A7.355,7.355,0,0,0,44,31.333Zm-33,0A3.667,3.667,0,1,1,7.333,13,3.677,3.677,0,0,1,11,9.333Zm29.333,22A3.677,3.677,0,0,1,36.667,35H8.067a1.834,1.834,0,0,1-1.283-3.117l6.6-6.6a1.772,1.772,0,0,1,2.567,0l1.1,1.1a1.772,1.772,0,0,0,2.567,0l12.1-12.1a1.772,1.772,0,0,1,2.567,0l5.5,5.5a1.664,1.664,0,0,1,.55,1.283V31.333Z" transform="translate(0 0)"/></g></svg>