<svg xmlns="http://www.w3.org/2000/svg" width="30" height="30" viewBox="0 0 30 30">
  <g id="Group_393" data-name="Group 393" transform="translate(-349 -439)">
    <circle id="Ellipse_1112" data-name="Ellipse 1112" cx="15" cy="15" r="15" transform="translate(349 439)" fill="#fff"/>
    <g id="Layer_2" transform="translate(494.94 371.672) rotate(90)">
      <g id="Group_335" data-name="Group 335" transform="translate(74.887 125.193)">
        <path id="Path_342" data-name="Path 342" d="M81.018,125.395a.69.69,0,0,0-.976,0l-4.951,4.951a.7.7,0,0,0-.048.053l-.013.018-.027.036-.017.028-.018.03c-.006.01-.01.021-.015.031l-.014.029c0,.011-.008.022-.012.034s-.007.02-.01.03-.006.025-.009.037l-.007.028a.485.485,0,0,0-.007.049l0,.018a.679.679,0,0,0,0,.139v.008c0,.02.005.04.009.059l0,.017c0,.016.008.033.013.049l.006.017c.005.016.011.031.017.047l.006.014c.007.016.015.032.023.047l.006.009c.009.016.019.033.029.049l0,0a.679.679,0,0,0,.082.1l4.953,4.953a.69.69,0,0,0,.976-.976l-3.775-3.775h12.58a.69.69,0,0,0,0-1.38H77.244l3.774-3.775A.69.69,0,0,0,81.018,125.395Z" transform="translate(-74.887 -125.192)"/>
      </g>
    </g>
  </g>
</svg>
