<svg xmlns="http://www.w3.org/2000/svg" width="51" height="51" viewBox="0 0 51 51">
  <g id="Group_345" data-name="Group 345" transform="translate(-357 -737)">
    <circle id="Ellipse_1090" data-name="Ellipse 1090" cx="25.5" cy="25.5" r="25.5" transform="translate(357 737)" fill="#191a19"/>
    <path id="iconfinder_arrow-down-01_186411" d="M11.373,19.073,4.966,12.667a1.514,1.514,0,0,1,0-2.136L5.5,10a1.514,1.514,0,0,1,2.135,0l4.889,4.889L17.415,10a1.514,1.514,0,0,1,2.135,0l.535.535a1.514,1.514,0,0,1,0,2.136l-6.408,6.407a1.5,1.5,0,0,1-1.152.432A1.5,1.5,0,0,1,11.373,19.073Z" transform="translate(387.775 749.695) rotate(90)" fill="#fff"/>
  </g>
</svg>
