<svg xmlns="http://www.w3.org/2000/svg" xmlns:xlink="http://www.w3.org/1999/xlink" width="306" height="306" viewBox="0 0 306 306">
  <defs>
    <linearGradient id="linear-gradient" y1="0.5" x2="0.714" y2="0.5" gradientUnits="objectBoundingBox">
      <stop offset="0" stop-color="#2adce8"/>
      <stop offset="1" stop-color="#29db95"/>
    </linearGradient>
    <filter id="Ellipse_1073" x="25" y="26" width="257" height="258" filterUnits="userSpaceOnUse">
      <feOffset dy="3" input="SourceAlpha"/>
      <feGaussianBlur stdDeviation="10" result="blur"/>
      <feFlood flood-color="#29db95"/>
      <feComposite operator="in" in2="blur"/>
      <feComposite in="SourceGraphic"/>
    </filter>
    <filter id="Ellipse_1081" x="12" y="14" width="282" height="282" filterUnits="userSpaceOnUse">
      <feOffset dy="3" input="SourceAlpha"/>
      <feGaussianBlur stdDeviation="10" result="blur-2"/>
      <feFlood flood-color="#29db95"/>
      <feComposite operator="in" in2="blur-2"/>
      <feComposite in="SourceGraphic"/>
    </filter>
    <filter id="Ellipse_1087" x="0" y="0" width="306" height="306" filterUnits="userSpaceOnUse">
      <feOffset dy="3" input="SourceAlpha"/>
      <feGaussianBlur stdDeviation="10" result="blur-3"/>
      <feFlood flood-color="#29db95"/>
      <feComposite operator="in" in2="blur-3"/>
      <feComposite in="SourceGraphic"/>
    </filter>
  </defs>
  <g id="Group_340" data-name="Group 340" transform="translate(-485 -49)">
    <circle id="Ellipse_1072" data-name="Ellipse 1072" cx="87" cy="87" r="87" transform="translate(552 114)" fill="url(#linear-gradient)"/>
    <g transform="matrix(1, 0, 0, 1, 485, 49)" filter="url(#Ellipse_1073)">
      <g id="Ellipse_1073-2" data-name="Ellipse 1073" transform="translate(55 53)" fill="none" stroke="#29db95" stroke-width="4" opacity="0.6">
        <ellipse cx="98.5" cy="99" rx="98.5" ry="99" stroke="none"/>
        <ellipse cx="98.5" cy="99" rx="96.5" ry="97" fill="none"/>
      </g>
    </g>
    <g transform="matrix(1, 0, 0, 1, 485, 49)" filter="url(#Ellipse_1081)">
      <g id="Ellipse_1081-2" data-name="Ellipse 1081" transform="translate(42 41)" fill="none" stroke="#29db95" stroke-width="4" opacity="0.15">
        <circle cx="111" cy="111" r="111" stroke="none"/>
        <circle cx="111" cy="111" r="109" fill="none"/>
      </g>
    </g>
    <g transform="matrix(1, 0, 0, 1, 485, 49)" filter="url(#Ellipse_1087)">
      <g id="Ellipse_1087-2" data-name="Ellipse 1087" transform="translate(30 27)" fill="none" stroke="#29db95" stroke-width="4" opacity="0.05">
        <circle cx="123" cy="123" r="123" stroke="none"/>
        <circle cx="123" cy="123" r="121" fill="none"/>
      </g>
    </g>
    <g id="Page-1" transform="translate(593.14 155.319)">
      <g id="Core">
        <g id="check-circle-outline">
          <path id="Shape" d="M27.015,37.089,20.6,43.5l20.6,20.6L87,18.316l-6.41-6.41L41.21,51.283,27.015,37.089Zm55.4,8.7A36.631,36.631,0,1,1,45.789,9.158a35.709,35.709,0,0,1,10.074,1.374l7.326-7.326A55.729,55.729,0,0,0,45.789,0,45.789,45.789,0,1,0,91.578,45.789Z" transform="translate(0)" fill="#fff" fill-rule="evenodd"/>
        </g>
      </g>
    </g>
  </g>
</svg>
