<svg xmlns="http://www.w3.org/2000/svg" xmlns:xlink="http://www.w3.org/1999/xlink" width="30" height="27.138" viewBox="0 0 30 27.138"><defs><style>.a{opacity:0.4;}.b{fill:#fff;}.c{fill:#26cc8b;}.d{fill:url(#a);}.e{fill:#2adce8;}</style><linearGradient id="a" x1="0.328" x2="0.602" y2="0.918" gradientUnits="objectBoundingBox"><stop offset="0" stop-color="#2adce8"/><stop offset="1" stop-color="#26cc8b"/></linearGradient></defs><g class="a" transform="translate(-6.45 -7.5)"><g transform="translate(6.45 7.5)"><path class="b" d="M5,0H23.783a5,5,0,0,1,5,5V18.849a5,5,0,0,1-5,5H5a5,5,0,0,1-5-5V5A5,5,0,0,1,5,0Z"/><path class="c" d="M5,0H23.783a5,5,0,0,1,5,5V20.493a5,5,0,0,1-5,5H5a5,5,0,0,1-5-5V5A5,5,0,0,1,5,0Z" transform="translate(0 1.645)"/><rect class="d" width="28.783" height="23.849" rx="5" transform="translate(0 3.289)"/><path class="e" d="M32.039,23.73a3.289,3.289,0,0,0,0,6.579h7.155V23.73Z" transform="translate(-10.411 -10.383)"/><path class="b" d="M32.039,22h7.607a.765.765,0,0,1,.765.765v5.049a.765.765,0,0,1-.765.765H32.039a3.289,3.289,0,0,1-3.289-3.289h0A3.289,3.289,0,0,1,32.039,22Z" transform="translate(-10.411 -10.076)"/><circle cx="1.423" cy="1.423" r="1.423" transform="translate(20.14 13.791)"/></g></g></svg>