<svg xmlns="http://www.w3.org/2000/svg" width="35.624" height="37" viewBox="0 0 35.624 37"><defs><style>.a{fill:none;stroke:#339af2;stroke-linecap:round;stroke-width:3px;fill-rule:evenodd;}</style></defs><g transform="translate(-46.343 -41.434)"><g transform="translate(48.377 42.934)"><path class="a" d="M124.892,46.713v34" transform="translate(-109.017 -46.713)"/><path class="a" d="M76.772,87.1l-31.313,17" transform="translate(-45.459 -79.029)"/><path class="a" d="M45.5,86.358l31.313,17" transform="translate(-45.489 -78.436)"/><path class="a" d="M99.163,61.709l5.085,5.835,5.085-5.747" transform="translate(-88.431 -58.712)"/><path class="a" d="M99.211,181.875l5.085-5.835,5.085,5.747" transform="translate(-88.469 -150.195)"/><path class="a" d="M169.572,69.5l-2.511,7.322,7.52,1.53" transform="translate(-142.76 -64.948)"/><path class="a" d="M173.208,143.175l-7.6,1.487,2.435,7.278" transform="translate(-141.6 -123.898)"/><path class="a" d="M55.413,149.412l2.511-7.322-7.52-1.53" transform="translate(-49.415 -121.805)"/><path class="a" d="M47.323,80.986l7.6-1.487-2.435-7.278" transform="translate(-46.95 -67.124)"/></g></g></svg>