<svg xmlns="http://www.w3.org/2000/svg" width="28.538" height="29.123" viewBox="0 0 28.538 29.123"><defs><style>.a{fill:#fff;}</style></defs><g transform="translate(-0.001 0)"><path class="a" d="M7.63,7.938a9.645,9.645,0,0,1,11.847-1.4c-1.259,1.246-2.711,2.7-2.711,2.7-1.016,1.219.125,1.922.7,1.9l6.789,0c.358,0,.651,0,.651,0h1.972a.654.654,0,0,0,.652-.653V1.154A1.034,1.034,0,0,0,25.671.425s-1.6,1.561-2.708,2.657A14.435,14.435,0,0,0,.014,15.373h4.83A9.6,9.6,0,0,1,7.63,7.938Z"/><path class="a" d="M23.695,13.75A9.617,9.617,0,0,1,9.063,22.587c1.258-1.246,2.71-2.7,2.71-2.7,1.016-1.219-.125-1.922-.7-1.9l-6.789,0c-.358,0-.651,0-.651,0H1.654A.654.654,0,0,0,1,18.634v9.335a1.034,1.034,0,0,0,1.865.728s1.6-1.561,2.708-2.656a14.435,14.435,0,0,0,22.95-12.29h-4.83Z"/></g></svg>