<svg xmlns="http://www.w3.org/2000/svg" width="30.267" height="34.538" viewBox="0 0 30.267 34.538"><defs><style>.a{fill:#d88008;}</style></defs><g transform="translate(-15.248 48.551) rotate(-90)"><g transform="translate(14.013 15.248)"><path class="a" d="M23.024,45.346,47.3,32.433a2.35,2.35,0,0,0,0-4.15L23.324,15.524a2.35,2.35,0,0,0-1.577-.227l-5.8,1.194a2.35,2.35,0,0,0-1.47,3.623l5.187,7.629a2.99,2.99,0,0,0,2.27,1.3L41.2,30.355,21.51,31.82a2.35,2.35,0,0,0-1.771,1.025L14.42,40.69a2.35,2.35,0,0,0,1.505,3.627l6.152,1.173A1.441,1.441,0,0,0,23.024,45.346Z" transform="translate(-14.013 -15.248)"/></g></g></svg>