<svg xmlns="http://www.w3.org/2000/svg" width="17.334" height="20.74" viewBox="0 0 17.334 20.74"><defs><style>.a{fill:#fff;}.b{fill:#26cc8b;}</style></defs><g transform="translate(-6.904 11.299) rotate(-45)"><path class="a" d="M10,19.338l-2-2V14l5.338,5.338Z" transform="translate(-1.664 -3.653)"/><path class="a" d="M20.867,3.021A16.39,16.39,0,0,0,10.2,7.678c-2,2-2,5.338-.667,6.673s4.677,1.328,6.673-.667A16.39,16.39,0,0,0,20.867,3.021ZM14.208,8.345a1.335,1.335,0,1,1,1.335,1.335A1.334,1.334,0,0,1,14.208,8.345Z" transform="translate(-1.867)"/><path class="a" d="M16.545,18.676s.505,2.525-.505,3.534A9.053,9.053,0,0,1,12,24.23l.667-4.671Z" transform="translate(-2.995 -5.209)"/><path class="a" d="M8.554,11.126s-2.525-.505-3.534.505A9.053,9.053,0,0,0,3,15.671L7.671,15Z" transform="translate(0 -2.655)"/><path class="b" d="M8.031,21.56a.833.833,0,0,1-.087.13,1.7,1.7,0,0,1-1.627.326,1.7,1.7,0,0,1,.326-1.627.919.919,0,0,1,.13-.087L6.468,20a1.516,1.516,0,0,0-.693.392c-.911.911-.767,2.936-.767,2.936s2.012.157,2.936-.767a1.516,1.516,0,0,0,.392-.693Z" transform="translate(-0.666 -5.649)"/></g></svg>